<?xml version="1.0" encoding="UTF-8"?>
<svg width="20px" height="20px" viewBox="0 0 20 20" version="1.1" xmlns="http://www.w3.org/2000/svg" xmlns:xlink="http://www.w3.org/1999/xlink">
   <g id="Sign-up-&amp;-log-in" stroke="none" stroke-width="1" fill="none" fill-rule="evenodd">
      <g id="10-GitHub-Sign-Up" transform="translate(-683.000000, -568.000000)" fill="#000000">
         <g id="Group-10" transform="translate(475.000000, 554.000000)">
            <path d="m 217.99908,14.247 c -5.52125,0 -9.9989,4.477037 -9.9989,10.000128 0,4.418105 2.86498,8.165851 6.83864,9.488151 0.50032,0.09209 0.68264,-0.2167 0.68264,-0.481897 0,-0.236958 -0.009,-0.866186 -0.0135,-1.700451 -2.7815,0.604059 -3.36837,-1.340718 -3.36837,-1.340718 -0.45488,-1.155324 -1.11051,-1.462878 -1.11051,-1.462878 -0.90793,-0.620021 0.0688,-0.607743 0.0688,-0.607743 1.00369,0.07059 1.53163,1.030707 1.53163,1.030707 0.89197,1.527951 2.34073,1.08657 2.91041,0.830581 0.0909,-0.645803 0.3493,-1.08657 0.63476,-1.33642 -2.22042,-0.252305 -4.555,-1.110511 -4.555,-4.942359 0,-1.091481 0.38981,-1.984679 1.02947,-2.683275 -0.10312,-0.25292 -0.44628,-1.270121 0.0982,-2.646444 0,0 0.83917,-0.268879 2.74957,1.025183 0.79744,-0.222225 1.65318,-0.332724 2.50341,-0.337021 0.84961,0.0043 1.70475,0.114796 2.5034,0.337021 1.90918,-1.294062 2.74713,-1.025183 2.74713,-1.025183 0.54574,1.376323 0.20258,2.393524 0.10006,2.646444 0.64089,0.698596 1.02764,1.591794 1.02764,2.683275 0,3.84167 -2.33828,4.686985 -4.56544,4.93438 0.3585,0.308781 0.67834,0.91898 0.67834,1.85208 0,1.336419 -0.0123,2.415008 -0.0123,2.742821 0,0.267653 0.18048,0.578891 0.68755,0.481283 3.97058,-1.32537 6.83311,-5.07066 6.83311,-9.487537 0,-5.523091 -4.47765,-10.000128 -10.00074,-10.000128" id="Fill-4"></path>
         </g>
      </g>
   </g>
</svg>